#!OML:ASF H:\charlestonDancing\Project 1\Capture day 1\Session 1\femaleDancer.ASF
:FULLY-SPECIFIED
:DEGREES
523
root -14.4267 17.2717 1.53678 365.995 -121.625 -369.383
lowerback 12.4866 -1.62647 -3.94178
upperback 0.513613 -2.97804 -2.30222
thorax -6.39436 -1.41789 0.325868
lowerneck 1.01201 -5.2487 -0.342547
upperneck -0.618447 -7.04385 5.84216
head -0.126369 -3.57545 1.88634
rclavicle 5.72997e-014 -1.74931e-014
rhumerus -39.1955 7.69534 -82.7418
rradius 30.9539
rwrist 32.3435
rhand -12.1628 -29.2
rfingers 7.12502
rthumb 13.9001 301.285
lclavicle 5.72997e-014 -1.74931e-014
lhumerus -37.225 -0.44995 85.8396
lradius 28.9556
lwrist -22.0345
lhand -24.345 6.01681
lfingers 7.12502
lthumb 2.14414 35.9858
rfemur -28.3056 -1.74733 14.2196
rtibia 74.2708
rfoot -4.18928 17.982
rtoes -12.6828
lfemur -2.42208 -2.45195 -22.3537
ltibia 34.1866
lfoot -20.806 -11.3141
ltoes -34.7116
524
root -14.5496 17.3366 1.42075 366.83 -122.676 -369.946
lowerback 12.3382 -1.81272 -4.29033
upperback 0.440411 -3.26324 -2.24135
thorax -6.35764 -1.5455 0.629491
lowerneck 1.02084 -6.20143 -0.887714
upperneck -0.312605 -8.33741 6.00075
head 0.0407426 -4.2142 2.01798
rclavicle -5.29264e-014 -4.21423e-014
rhumerus -39.975 7.28971 -81.9843
rradius 30.2978
rwrist 32.7056
rhand -9.59898 -27.9791
rfingers 7.12502
rthumb 16.3698 302.692
lclavicle -5.29264e-014 -4.21423e-014
lhumerus -38.3229 2.51107 83.7731
lradius 27.3744
lwrist -20.4105
lhand -25.9465 7.55247
lfingers 7.12502
lthumb 0.59746 37.5314
rfemur -30.0336 -2.20291 13.3602
rtibia 73.3733
rfoot -5.30841 16.9932
rtoes -13.7826
lfemur -1.22625 -1.98046 -22.841
ltibia 32.3198
lfoot -20.1916 -10.654
ltoes -33.5457
525
root -14.6688 17.3968 1.2972 367.18 -123.727 -369.83
lowerback 12.0071 -2.02147 -4.35332
upperback 0.442009 -3.50911 -2.04801
thorax -6.144 -1.66372 0.894512
lowerneck 1.51198 -7.12829 -1.83493
upperneck -0.62222 -9.57923 6.67604
head -0.0104518 -4.84926 2.41552
rclavicle 8.69683e-014 2.40529e-014
rhumerus -40.4743 7.14472 -81.1694
rradius 29.8726
rwrist 33.2352
rhand -9.46584 -25.7723
rfingers 7.12502
rthumb 16.498 304.909
lclavicle 8.69683e-014 2.40529e-014
lhumerus -39.5701 4.92707 81.9676
lradius 26.6787
lwrist -17.4701
lhand -26.7694 9.7564
lfingers 7.12502
lthumb -0.19739 39.7361
rfemur -31.722 -2.50889 12.9615
rtibia 71.9472
rfoot -6.37985 15.4815
rtoes -12.7484
lfemur -0.252544 -1.50283 -22.9157
ltibia 30.6821
lfoot -19.4247 -10.211
ltoes -31.0431
526
root -14.7841 17.4452 1.16625 367.151 -124.663 -369.043
lowerback 11.662 -2.3427 -4.07877
upperback 0.357927 -3.84606 -1.72138
thorax -6.0185 -1.82832 1.12327
lowerneck 2.09609 -7.89216 -2.47121
upperneck -1.14822 -10.5915 7.13317
head -0.167316 -5.37392 2.70696
rclavicle -1.8077e-014 4.17448e-015
rhumerus -40.7013 7.26919 -80.4321
rradius 29.4069
rwrist 33.5429
rhand -6.88983 -26.0218
rfingers 7.12502
rthumb 18.9768 304.884
lclavicle -1.8077e-014 4.17448e-015
lhumerus -41.2439 6.72021 80.4769
lradius 26.9202
lwrist -13.5506
lhand -27.338 12.3737
lfingers 7.12502
lthumb -0.746537 42.3522
rfemur -33.4154 -2.82956 13.0568
rtibia 70.0834
rfoot -7.55226 13.4734
rtoes -12.2754
lfemur 0.42936 -0.86422 -22.4844
ltibia 29.218
lfoot -18.8145 -9.60346
ltoes -30.1786
527
root -14.8989 17.483 1.02373 367.339 -125.559 -368.311
lowerback 11.248 -2.67275 -3.82683
upperback 0.207532 -4.19685 -1.36679
thorax -5.91911 -1.9972 1.38999
lowerneck 2.02873 -8.58908 -2.74352
upperneck -1.08968 -11.529 7.10383
head -0.073964 -5.83646 2.72808
rclavicle -1.08841e-013 -4.96962e-016
rhumerus -40.7359 7.36363 -79.6068
rradius 28.9375
rwrist 33.674
rhand -4.75007 -27.3221
rfingers 7.12502
rthumb 21.0335 303.799
lclavicle -1.08841e-013 -4.96962e-016
lhumerus -43.0865 7.95802 79.307
lradius 27.5725
lwrist -9.78228
lhand -28.2844 14.1842
lfingers 7.12502
lthumb -1.66056 44.1575
rfemur -35.1386 -3.28833 13.2081
rtibia 67.8735
rfoot -8.54175 11.0409
rtoes -12.7094
lfemur 0.891297 -0.0896475 -22.0125
ltibia 27.9162
lfoot -18.3025 -9.03528
ltoes -30.2938
528
root -15.0123 17.513 0.873811 368.154 -126.59 -368.231
lowerback 10.6994 -2.87142 -3.91519
upperback 0.103795 -4.42432 -1.13483
thorax -5.68414 -2.10483 1.68516
lowerneck 1.71134 -9.1429 -2.92991
upperneck -0.874851 -12.275 6.95794
head 0.0896533 -6.1961 2.67664
rclavicle -4.11694e-014 1.13494e-014
rhumerus -40.7297 7.21617 -78.6725
rradius 28.8068
rwrist 33.7814
rhand -4.15153 -27.4398
rfingers 7.12502
rthumb 21.6084 303.746
lclavicle -4.11694e-014 1.13494e-014
lhumerus -44.6443 8.6994 78.4034
lradius 28.1611
lwrist -6.8041
lhand -29.3608 14.8302
lfingers 7.12502
lthumb -2.7002 44.7928
rfemur -36.9199 -3.7514 12.9885
rtibia 65.3636
rfoot -9.18659 8.37803
rtoes -12.9372
lfemur 1.25016 0.763477 -21.9716
ltibia 26.6864
lfoot -17.8961 -8.42792
ltoes -30.8285
